<?xml version="1.0" standalone="no"?>
<!DOCTYPE svg PUBLIC "-//W3C//DTD SVG 20010904//EN"
 "http://www.w3.org/TR/2001/REC-SVG-20010904/DTD/svg10.dtd">
<svg version="1.0" xmlns="http://www.w3.org/2000/svg"
 width="225.000000pt" height="224.000000pt" viewBox="0 0 225.000000 224.000000"
 preserveAspectRatio="xMidYMid meet">
<metadata>
Created by potrace 1.15, written by Peter Selinger 2001-2017
</metadata>
<g transform="translate(0.000000,224.000000) scale(0.100000,-0.100000)"
fill="#000000" stroke="none">
<path d="M775 2230 c-205 -22 -383 -108 -526 -257 -144 -149 -219 -310 -238
-513 -25 -277 69 -528 268 -712 174 -161 382 -236 625 -225 137 6 231 29 340
83 l70 34 165 -163 c357 -351 444 -433 479 -451 70 -36 184 -16 233 40 49 56
65 141 41 215 -9 24 -59 81 -167 187 -85 83 -225 220 -310 303 l-154 152 39
81 c64 132 83 233 77 406 -4 122 -9 157 -31 223 -49 144 -101 232 -205 341
-182 190 -441 284 -706 256z m196 -345 c209 -44 382 -229 409 -437 10 -81 1
-175 -24 -246 -55 -154 -198 -285 -361 -328 -65 -18 -196 -18 -261 0 -261 69
-433 339 -380 596 43 208 202 371 404 415 79 18 129 18 213 0z"/>
</g>
</svg>
